<svg xmlns="http://www.w3.org/2000/svg" width="15.006" height="16.845" viewBox="0 0 15.006 16.845">
  <g id="Group_6580" data-name="Group 6580" transform="translate(-13.963 -11.924)">
    <g id="Group_5194" data-name="Group 5194" transform="translate(0)">
      <g id="rectangles" transform="translate(13.963 11.924)">
        <path id="Path_2669" data-name="Path 2669" d="M14.29,2.735H12.014V.716A.716.716,0,0,0,11.3,0H.716A.716.716,0,0,0,0,.716V13.394a.716.716,0,0,0,.716.716H2.991v2.019a.716.716,0,0,0,.716.716H14.29a.716.716,0,0,0,.716-.716V3.451A.716.716,0,0,0,14.29,2.735ZM1.432,12.678V1.432h9.15v1.3H3.708a.716.716,0,0,0-.716.716v9.227Zm12.141,2.735H4.424V4.168h9.15Z" fill="#828487"/>
      </g>
    </g>
  </g>
</svg>
