<?xml version="1.0" encoding="utf-8"?>
<!-- Generator: Adobe Illustrator 19.0.0, SVG Export Plug-In . SVG Version: 6.00 Build 0)  -->
<svg version="1.1" id="Layer_1" xmlns="http://www.w3.org/2000/svg" xmlns:xlink="http://www.w3.org/1999/xlink" x="0px" y="0px"
	 viewBox="-458 159.4 42.6 42.6" style="enable-background:new -458 159.4 42.6 42.6;" xml:space="preserve">
<style type="text/css">
	.st0{fill:#2783F4;}
	.st1{fill:#FFFFFF;}
</style>
<g id="Group_6378" transform="translate(42.625 42.625) rotate(180)">
	<g id="Group_6308" transform="translate(0)">
		<path id="Rectangle_4_copy_3" class="st0" d="M479.3-116.8L479.3-116.8c-11.8,0-21.3-9.5-21.3-21.3l0,0c0-11.8,9.5-21.3,21.3-21.3
			l0,0c11.8,0,21.3,9.5,21.3,21.3l0,0C500.6-126.3,491.1-116.8,479.3-116.8z"/>
		<path id="Path_2040" class="st1" d="M475.4-129.5h2.3c2.2,0.1,4.1-1.6,4.2-3.7c0-0.2,0-0.4,0-0.6v-2h2.3c0.2,0,0.4-0.2,0.4-0.4
			v-2.9c0-0.2-0.2-0.4-0.4-0.4h-2.3v-7.2c0-0.2-0.2-0.4-0.4-0.4c0,0,0,0,0,0h-3c-0.2,0-0.4,0.2-0.4,0.4l0,0v7.2h-2.7
			c-0.2,0-0.4,0.2-0.4,0.4c0,0,0,0,0,0v2.9c0,0.2,0.2,0.4,0.4,0.4h2.7v1.7c0,0.8-0.2,1.2-1.2,1.2h-1.5c-0.2,0-0.4,0.2-0.4,0.4
			c0,0,0,0,0,0v2.7C475-129.7,475.2-129.5,475.4-129.5C475.4-129.5,475.4-129.5,475.4-129.5z"/>
	</g>
</g>
</svg>
