<?xml version="1.0" encoding="utf-8"?>
<!-- Generator: Adobe Illustrator 19.0.0, SVG Export Plug-In . SVG Version: 6.00 Build 0)  -->
<svg version="1.1" id="Layer_1" xmlns="http://www.w3.org/2000/svg" xmlns:xlink="http://www.w3.org/1999/xlink" x="0px" y="0px"
	 viewBox="-458 159.4 42.6 42.6" style="enable-background:new -458 159.4 42.6 42.6;" xml:space="preserve">
<style type="text/css">
	.st0{fill:#2783F4;}
	.st1{fill:#FFFFFF;}
</style>
<g id="Group_6380" transform="translate(42.625 42.625) rotate(180)">
	<g id="Group_6306" transform="translate(0)">
		<path id="Rectangle_4_copy_3" class="st0" d="M479.3-116.8L479.3-116.8c-11.8,0-21.3-9.5-21.3-21.3l0,0c0-11.8,9.5-21.3,21.3-21.3
			l0,0c11.8,0,21.3,9.5,21.3,21.3l0,0C500.6-126.3,491.1-116.8,479.3-116.8z"/>
		<g id="instagram_1_" transform="translate(12.788 12.788)">
			<path id="Path_2002" class="st1" d="M463.4-151.1c0-1.6,1.3-2.9,2.9-2.9s2.9,1.3,2.9,2.9s-1.3,2.9-2.9,2.9
				S463.4-149.5,463.4-151.1L463.4-151.1z"/>
			<path id="Path_2003" class="st1" d="M461.4-142.3h9.8c2.1,0,3.9-1.7,3.9-3.9v-9.8c0-2.1-1.7-3.9-3.9-3.9h-9.8
				c-2.1,0-3.9,1.7-3.9,3.9v9.8C457.6-144.1,459.3-142.3,461.4-142.3z M466.3-155.9c2.7,0,4.8,2.2,4.8,4.8s-2.2,4.8-4.8,4.8
				c-2.7,0-4.8-2.2-4.8-4.8C461.5-153.7,463.7-155.9,466.3-155.9z M460.8-146.5c0.5,0,1,0.4,1,1c0,0.5-0.4,1-1,1c-0.5,0-1-0.4-1-1
				C459.8-146.1,460.3-146.5,460.8-146.5L460.8-146.5z"/>
		</g>
	</g>
</g>
</svg>
