<?xml version="1.0" encoding="utf-8"?>
<!-- Generator: Adobe Illustrator 19.0.0, SVG Export Plug-In . SVG Version: 6.00 Build 0)  -->
<svg version="1.1" id="Layer_1" xmlns="http://www.w3.org/2000/svg" xmlns:xlink="http://www.w3.org/1999/xlink" x="0px" y="0px"
	 viewBox="-449 150.4 60.6 60.6" style="enable-background:new -449 150.4 60.6 60.6;" xml:space="preserve">
<style type="text/css">
	.st0{fill:#2783F4;}
	.st1{fill:#FFFFFF;}
</style>
<g id="Group_6376" transform="translate(9 6)">
	<g id="Group_5193" transform="translate(0 0)">
		<path id="Rectangle_4_copy_3-2" class="st0" d="M-427.7,144.4L-427.7,144.4c16.7,0,30.3,13.6,30.3,30.3l0,0
			c0,16.7-13.6,30.3-30.3,30.3l0,0c-16.7,0-30.3-13.6-30.3-30.3l0,0C-458,158-444.4,144.4-427.7,144.4z"/>
		<path id="Path_2041" class="st1" d="M-415,168.9c-1,0.4-2,0.7-3.1,0.8c1.1-0.7,1.9-1.7,2.3-2.9c-1,0.6-2.2,1.1-3.4,1.3
			c-2-2.1-5.4-2.3-7.5-0.2c-1.4,1.3-2,3.2-1.5,5.1c-4.3-0.2-8.3-2.2-11-5.6c-1.4,2.4-0.7,5.5,1.6,7.1c-0.8,0-1.7-0.3-2.4-0.7v0.1
			c0,2.5,1.8,4.7,4.3,5.2c-0.5,0.1-0.9,0.2-1.4,0.2c-0.3,0-0.7,0-1-0.1c0.7,2.2,2.7,3.7,5,3.7c-1.9,1.5-4.2,2.3-6.6,2.3
			c-0.4,0-0.8,0-1.3-0.1c2.4,1.6,5.3,2.4,8.2,2.4c8.3,0.1,15.1-6.6,15.2-15c0-0.1,0-0.1,0-0.2l0-0.7
			C-416.7,170.9-415.8,169.9-415,168.9z"/>
	</g>
</g>
</svg>
