<svg xmlns="http://www.w3.org/2000/svg" width="42.625" height="42.625" viewBox="0 0 42.625 42.625">
  <g id="Group_5192" data-name="Group 5192" transform="translate(0)">
    <rect id="Rectangle_4_copy_3" data-name="Rectangle 4 copy 3" width="42.625" height="42.625" rx="21.313" transform="translate(0 0)" fill="#2783f4"/>
    <g id="instagram_1_" data-name="instagram (1)" transform="translate(12.884 12.827)">
      <path id="whatsapp_1_" data-name="whatsapp (1)" d="M8.714,0A8.749,8.749,0,0,0,0,8.714a8.656,8.656,0,0,0,1.234,4.463L0,17.429,4.252,16.2a8.656,8.656,0,0,0,4.463,1.234A8.714,8.714,0,0,0,8.714,0Zm5.448,12.4-.405.405c-.574.574-1.893.528-2.741.364A9.961,9.961,0,0,1,4.278,6.679a3.579,3.579,0,0,1,.313-3.008L5,3.265a.574.574,0,0,1,.811,0L7.429,4.888a.574.574,0,0,1,0,.81L7.024,6.1a1.149,1.149,0,0,0,0,1.622L9.7,10.369a1.146,1.146,0,0,0,1.622,0l.405-.405a.6.6,0,0,1,.811,0l1.622,1.622A.573.573,0,0,1,14.163,12.4Zm0,0" transform="translate(0 0)" fill="#fff"/>
    </g>
  </g>
</svg>
